<svg width="300.4608154296875px" height="67.31428833007811px" xmlns="http://www.w3.org/2000/svg" viewBox="99.76959228515625 41.34285583496094 300.4608154296875 67.31428833007811" style="background: rgba(0, 0, 0, 0);" preserveAspectRatio="xMidYMid"><defs><filter id="editing-hole" x="-100%" y="-100%" width="300%" height="300%"><feFlood flood-color="#000" result="black"></feFlood><feMorphology operator="dilate" radius="2" in="SourceGraphic" result="erode"></feMorphology><feGaussianBlur in="erode" stdDeviation="4" result="blur"></feGaussianBlur><feOffset in="blur" dx="2" dy="2" result="offset"></feOffset><feComposite operator="atop" in="offset" in2="black" result="merge"></feComposite><feComposite operator="in" in="merge" in2="SourceGraphic" result="inner-shadow"></feComposite></filter></defs><g filter="url(#editing-hole)"><g transform="translate(146.96193206310272, 85.5299940109253)"><path d="M16.17-6.21L16.17-6.21L16.17-6.21Q16.95-5.64 16.95-4.42L16.95-4.42L16.95-4.42Q16.95-3.21 16.43-2.35L16.43-2.35L16.43-2.35Q15.90-1.50 14.88-0.84L14.88-0.84L14.88-0.84Q12.69 0.57 8.87 0.57L8.87 0.57L8.87 0.57Q5.04 0.57 2.96-1.43L2.96-1.43L2.96-1.43Q0.87-3.42 0.87-6.96L0.87-6.96L0.87-6.96Q0.87-11.97 3.48-15.78L3.48-15.78L3.48-15.78Q5.46-18.60 9-19.80L9-19.80L9-19.80Q10.83-20.40 12.63-20.40L12.63-20.40L12.63-20.40Q14.43-20.40 15.54-20.16L15.54-20.16L15.54-20.16Q16.65-19.92 17.49-19.44L17.49-19.44L17.49-19.44Q19.32-18.39 19.32-16.71L19.32-16.71L19.32-16.71Q19.32-15.18 17.88-14.04L17.88-14.04L17.88-14.04Q16.56-13.02 15.48-13.02L15.48-13.02L15.48-13.02Q14.40-13.02 13.95-13.17L13.95-13.17L13.95-13.17Q14.07-14.25 14.07-14.96L14.07-14.96L14.07-14.96Q14.07-15.66 14.04-16.17L14.04-16.17L14.04-16.17Q14.01-16.68 13.86-17.16L13.86-17.16L13.86-17.16Q13.56-18.27 12.64-18.27L12.64-18.27L12.64-18.27Q11.73-18.27 10.81-17.41L10.81-17.41L10.81-17.41Q9.90-16.56 9.12-15.12L9.12-15.12L9.12-15.12Q7.35-11.85 7.35-7.98L7.35-7.98L7.35-7.98Q7.35-6.12 8.40-5.05L8.40-5.05L8.40-5.05Q9.45-3.99 11.70-3.99L11.70-3.99L11.70-3.99Q13.38-3.99 14.97-5.10L14.97-5.10L14.97-5.10Q15.66-5.58 16.17-6.21ZM32.25-4.62L32.25-4.62L32.25-4.62Q32.82-3.90 32.82-2.73L32.82-2.73L32.82-2.73Q32.82-1.11 31.62-0.26L31.62-0.26L31.62-0.26Q30.42 0.60 28.53 0.60L28.53 0.60L28.53 0.60Q27.45 0.60 25.80 0.36L25.80 0.36L25.80 0.36Q22.56-0.15 21.57-0.15L21.57-0.15L21.57-0.15Q20.58-0.15 20.19-0.10L20.19-0.10L20.19-0.10Q19.80-0.06 19.17 0L19.17 0L22.86-19.80L35.79-19.80L35.79-19.80Q35.79-17.97 34.91-17.01L34.91-17.01L34.91-17.01Q34.02-16.05 32.28-16.05L32.28-16.05L32.28-16.05Q30.54-16.05 28.77-16.86L28.77-16.86L27.84-11.61L33.18-11.61L33.18-11.61Q33.18-10.02 32.40-9.13L32.40-9.13L32.40-9.13Q31.62-8.25 30.31-8.25L30.31-8.25L30.31-8.25Q29.01-8.25 28.20-8.55L28.20-8.55L28.20-8.55Q27.39-8.85 27.30-8.94L27.30-8.94L26.22-3.27L26.22-3.27Q26.94-3.18 28.29-3.18L28.29-3.18L28.29-3.18Q30.60-3.18 32.25-4.62ZM41.73 0L35.31 0L38.97-19.71L38.97-19.71Q41.94-20.04 46.27-20.04L46.27-20.04L46.27-20.04Q50.61-20.04 52.62-18.78L52.62-18.78L52.62-18.78Q54.63-17.52 54.63-14.98L54.63-14.98L54.63-14.98Q54.63-12.45 53.33-10.86L53.33-10.86L53.33-10.86Q52.02-9.27 49.77-8.76L49.77-8.76L49.77-8.76Q50.28-6.27 51.45-4.26L51.45-4.26L51.45-4.26Q52.53-2.37 53.79-1.77L53.79-1.77L53.79-1.77Q53.34-0.51 52.42 0.04L52.42 0.04L52.42 0.04Q51.51 0.60 50.20 0.60L50.20 0.60L50.20 0.60Q48.90 0.60 47.88-0.16L47.88-0.16L47.88-0.16Q46.86-0.93 46.05-2.34L46.05-2.34L46.05-2.34Q44.34-5.40 44.16-10.23L44.16-10.23L44.37-10.23L44.37-10.23Q46.59-10.29 47.70-11.45L47.70-11.45L47.70-11.45Q48.81-12.60 48.81-15.03L48.81-15.03L48.81-15.03Q48.81-18.06 46.26-18.18L46.26-18.18L45.60-18.18L45.60-18.18Q45.33-18.18 45.18-18.15L45.18-18.15L41.73 0ZM58.41-14.61L58.41-14.61L58.41-14.61Q57.39-15.39 57.39-17.05L57.39-17.05L57.39-17.05Q57.39-18.72 58.48-19.59L58.48-19.59L58.48-19.59Q59.58-20.46 61.47-20.46L61.47-20.46L61.47-20.46Q62.67-20.46 65.52-20.04L65.52-20.04L67.56-19.74L67.56-19.74Q68.58-19.62 69.64-19.62L69.64-19.62L69.64-19.62Q70.71-19.62 71.43-20.07L71.43-20.07L71.43-20.07Q72.51-19.11 72.51-17.73L72.51-17.73L72.51-17.73Q72.51-16.35 71.28-15.36L71.28-15.36L71.28-15.36Q70.02-14.31 68.40-14.31L68.40-14.31L68.40-14.31Q67.62-14.31 66.36-14.52L66.36-14.52L66.36-14.52Q64.89-9.90 64.89-6.69L64.89-6.69L64.89-6.69Q64.89-3.48 66.51-1.80L66.51-1.80L66.51-1.80Q65.76-0.45 64.65 0.07L64.65 0.07L64.65 0.07Q63.54 0.60 61.88 0.60L61.88 0.60L61.88 0.60Q60.21 0.60 59.17-0.32L59.17-0.32L59.17-0.32Q58.14-1.23 58.14-3.12L58.14-3.12L58.14-3.12Q58.14-5.31 59.34-8.91L59.34-8.91L59.34-8.91Q60.54-12.48 62.34-15.21L62.34-15.21L62.34-15.21Q61.47-15.30 60.57-15.30L60.57-15.30L60.57-15.30Q58.71-15.30 58.41-14.61ZM77.76 0L71.22 0L75.03-19.80L81.63-19.80L77.76 0ZM95.94-15.90L95.94-15.90L95.94-15.90Q93.51-15.90 91.74-16.71L91.74-16.71L90.78-11.85L96.57-11.85L96.57-11.85Q96.57-10.26 95.77-9.25L95.77-9.25L95.77-9.25Q94.98-8.25 93.54-8.25L93.54-8.25L93.54-8.25Q91.98-8.25 90.54-8.82L90.54-8.82L90.54-8.82Q90.24-8.94 90.21-8.97L90.21-8.97L88.50 0L81.96 0L85.77-19.80L99.15-19.80L99.15-19.80Q99.15-17.97 98.29-16.93L98.29-16.93L98.29-16.93Q97.44-15.90 95.94-15.90ZM104.61 0L98.07 0L101.88-19.80L108.48-19.80L104.61 0ZM124.80-6.21L124.80-6.21L124.80-6.21Q125.58-5.64 125.58-4.42L125.58-4.42L125.58-4.42Q125.58-3.21 125.05-2.35L125.05-2.35L125.05-2.35Q124.53-1.50 123.51-0.84L123.51-0.84L123.51-0.84Q121.32 0.57 117.49 0.57L117.49 0.57L117.49 0.57Q113.67 0.57 111.58-1.43L111.58-1.43L111.58-1.43Q109.50-3.42 109.50-6.96L109.50-6.96L109.50-6.96Q109.50-11.97 112.11-15.78L112.11-15.78L112.11-15.78Q114.09-18.60 117.63-19.80L117.63-19.80L117.63-19.80Q119.46-20.40 121.26-20.40L121.26-20.40L121.26-20.40Q123.06-20.40 124.17-20.16L124.17-20.16L124.17-20.16Q125.28-19.92 126.12-19.44L126.12-19.44L126.12-19.44Q127.95-18.39 127.95-16.71L127.95-16.71L127.95-16.71Q127.95-15.18 126.51-14.04L126.51-14.04L126.51-14.04Q125.19-13.02 124.11-13.02L124.11-13.02L124.11-13.02Q123.03-13.02 122.58-13.17L122.58-13.17L122.58-13.17Q122.70-14.25 122.70-14.96L122.70-14.96L122.70-14.96Q122.70-15.66 122.67-16.17L122.67-16.17L122.67-16.17Q122.64-16.68 122.49-17.16L122.49-17.16L122.49-17.16Q122.19-18.27 121.27-18.27L121.27-18.27L121.27-18.27Q120.36-18.27 119.44-17.41L119.44-17.41L119.44-17.41Q118.53-16.56 117.75-15.12L117.75-15.12L117.75-15.12Q115.98-11.85 115.98-7.98L115.98-7.98L115.98-7.98Q115.98-6.12 117.03-5.05L117.03-5.05L117.03-5.05Q118.08-3.99 120.33-3.99L120.33-3.99L120.33-3.99Q122.01-3.99 123.60-5.10L123.60-5.10L123.60-5.10Q124.29-5.58 124.80-6.21ZM141.24 0.60L141.24 0.60L141.24 0.60Q137.40 0.60 137.04-4.86L137.04-4.86L131.88-4.86L131.88-4.86Q131.28-3.48 130.86-2.28L130.86-2.28L130.08 0L125.88 0L135.33-19.80L141.78-19.80L143.04-5.22L143.04-5.22Q143.34-2.07 144.54-1.14L144.54-1.14L144.54-1.14Q143.67 0.60 141.24 0.60ZM134.46-10.86L132.81-7.05L136.95-7.05L136.59-14.76L136.59-15.57L134.46-10.86ZM165.75-12.45L165.75-12.45L165.75-12.45Q165.75 0.33 151.89 0.33L151.89 0.33L151.89 0.33Q149.67 0.33 146.01-0.21L146.01-0.21L149.37-17.94L149.37-17.94Q149.61-19.14 149.76-19.83L149.76-19.83L149.76-19.83Q154.32-20.16 156.34-20.16L156.34-20.16L156.34-20.16Q158.37-20.16 160.23-19.74L160.23-19.74L160.23-19.74Q162.09-19.32 163.32-18.39L163.32-18.39L163.32-18.39Q165.75-16.56 165.75-12.45ZM159.57-13.56L159.57-13.56L159.57-13.56Q159.57-18.03 156.36-18.03L156.36-18.03L156.06-18.03L156.06-18.03Q155.91-18.03 155.76-18L155.76-18L152.67-1.89L152.67-1.89Q152.79-1.83 152.91-1.83L152.91-1.83L153.15-1.83L153.15-1.83Q154.26-1.83 155.41-2.52L155.41-2.52L155.41-2.52Q156.57-3.21 157.47-4.62L157.47-4.62L157.47-4.62Q159.57-7.89 159.57-13.56ZM167.73-7.32L167.73-7.32L167.73-7.32Q167.73-12.99 170.67-16.56L170.67-16.56L170.67-16.56Q173.79-20.43 179.22-20.43L179.22-20.43L179.22-20.43Q183.15-20.43 185.13-18.52L185.13-18.52L185.13-18.52Q187.11-16.62 187.11-12.60L187.11-12.60L187.11-12.60Q187.11-6.48 183.99-2.91L183.99-2.91L183.99-2.91Q180.90 0.60 175.71 0.60L175.71 0.60L175.71 0.60Q171.66 0.60 169.69-1.43L169.69-1.43L169.69-1.43Q167.73-3.45 167.73-7.32ZM175.62-13.53L175.62-13.53L175.62-13.53Q174.27-8.13 174.27-3.87L174.27-3.87L174.27-3.87Q174.27-2.85 174.61-2.19L174.61-2.19L174.61-2.19Q174.96-1.53 175.87-1.53L175.87-1.53L175.87-1.53Q176.79-1.53 177.36-1.96L177.36-1.96L177.36-1.96Q177.93-2.40 178.38-3.39L178.38-3.39L178.38-3.39Q179.10-5.01 179.77-8.45L179.77-8.45L179.77-8.45Q180.45-11.88 180.51-13.30L180.51-13.30L180.51-13.30Q180.57-14.73 180.57-15.81L180.57-15.81L180.57-15.81Q180.57-16.89 180.24-17.58L180.24-17.58L180.24-17.58Q179.91-18.27 179.02-18.27L179.02-18.27L179.02-18.27Q178.14-18.27 177.54-17.73L177.54-17.73L177.54-17.73Q176.43-16.71 175.62-13.53ZM200.28-13.86L200.28-13.86L200.28-13.86Q200.73-14.76 200.73-15.60L200.73-15.60L200.73-15.60Q200.73-16.44 200.64-16.91L200.64-16.91L200.64-16.91Q200.55-17.37 200.34-17.73L200.34-17.73L200.34-17.73Q199.89-18.51 198.99-18.51L198.99-18.51L198.99-18.51Q197.88-18.51 196.98-17.70L196.98-17.70L196.98-17.70Q196.02-16.86 196.02-15.54L196.02-15.54L196.02-15.54Q196.02-14.70 196.60-14.05L196.60-14.05L196.60-14.05Q197.19-13.41 198.09-12.81L198.09-12.81L198.09-12.81Q198.99-12.21 200.01-11.61L200.01-11.61L200.01-11.61Q201.03-11.01 201.93-10.29L201.93-10.29L201.93-10.29Q204-8.64 204-6.42L204-6.42L204-6.42Q204-4.92 203.20-3.65L203.20-3.65L203.20-3.65Q202.41-2.37 201.09-1.44L201.09-1.44L201.09-1.44Q198.21 0.60 194.40 0.60L194.40 0.60L194.40 0.60Q191.31 0.60 189.72-0.40L189.72-0.40L189.72-0.40Q188.13-1.41 188.13-2.94L188.13-2.94L188.13-2.94Q188.13-5.67 190.26-6.36L190.26-6.36L190.26-6.36Q190.86-6.57 191.78-6.57L191.78-6.57L191.78-6.57Q192.69-6.57 193.74-6.18L193.74-6.18L193.74-6.18Q193.26-4.95 193.26-3.84L193.26-3.84L193.26-3.84Q193.26-1.44 194.97-1.44L194.97-1.44L194.97-1.44Q196.08-1.44 197.00-2.25L197.00-2.25L197.00-2.25Q197.91-3.06 197.91-3.97L197.91-3.97L197.91-3.97Q197.91-4.89 197.32-5.55L197.32-5.55L197.32-5.55Q196.74-6.21 195.87-6.73L195.87-6.73L195.87-6.73Q195-7.26 194.00-7.77L194.00-7.77L194.00-7.77Q192.99-8.28 192.12-9L192.12-9L192.12-9Q190.08-10.65 190.08-13.29L190.08-13.29L190.08-13.29Q190.08-15 190.92-16.34L190.92-16.34L190.92-16.34Q191.76-17.67 193.11-18.57L193.11-18.57L193.11-18.57Q195.81-20.40 199.13-20.40L199.13-20.40L199.13-20.40Q202.44-20.40 204.04-19.41L204.04-19.41L204.04-19.41Q205.65-18.42 205.65-16.74L205.65-16.74L205.65-16.74Q205.65-15.27 204.51-14.34L204.51-14.34L204.51-14.34Q203.52-13.56 202.32-13.56L202.32-13.56L202.32-13.56Q201.12-13.56 200.28-13.86Z" fill="#ccc"></path></g></g><style>text {
  font-size: 64px;
  font-family: Arial Black;
  dominant-baseline: central;
  text-anchor: middle;
}</style></svg>