<svg width="272.87855834960936px" height="67.31428833007811px" xmlns="http://www.w3.org/2000/svg" viewBox="113.56072082519532 41.34285583496094 272.87855834960936 67.31428833007811" style="background: rgba(0, 0, 0, 0);" preserveAspectRatio="xMidYMid"><defs><filter id="editing-hole" x="-100%" y="-100%" width="300%" height="300%"><feFlood flood-color="#000" result="black"></feFlood><feMorphology operator="dilate" radius="2" in="SourceGraphic" result="erode"></feMorphology><feGaussianBlur in="erode" stdDeviation="4" result="blur"></feGaussianBlur><feOffset in="blur" dx="2" dy="2" result="offset"></feOffset><feComposite operator="atop" in="offset" in2="black" result="merge"></feComposite><feComposite operator="in" in="merge" in2="SourceGraphic" result="inner-shadow"></feComposite></filter></defs><g filter="url(#editing-hole)"><g transform="translate(157.5249764919281, 88.13999462127686)"><path d="M13.32-4.62L13.32-4.62L13.32-4.62Q13.89-3.90 13.89-2.73L13.89-2.73L13.89-2.73Q13.89-1.11 12.69-0.26L12.69-0.26L12.69-0.26Q11.49 0.60 9.60 0.60L9.60 0.60L9.60 0.60Q8.52 0.60 6.87 0.36L6.87 0.36L6.87 0.36Q3.63-0.15 2.64-0.15L2.64-0.15L2.64-0.15Q1.65-0.15 1.26-0.10L1.26-0.10L1.26-0.10Q0.87-0.06 0.24 0L0.24 0L3.93-19.80L16.86-19.80L16.86-19.80Q16.86-17.97 15.97-17.01L15.97-17.01L15.97-17.01Q15.09-16.05 13.35-16.05L13.35-16.05L13.35-16.05Q11.61-16.05 9.84-16.86L9.84-16.86L8.91-11.61L14.25-11.61L14.25-11.61Q14.25-10.02 13.47-9.13L13.47-9.13L13.47-9.13Q12.69-8.25 11.38-8.25L11.38-8.25L11.38-8.25Q10.08-8.25 9.27-8.55L9.27-8.55L9.27-8.55Q8.46-8.85 8.37-8.94L8.37-8.94L7.29-3.27L7.29-3.27Q8.01-3.18 9.36-3.18L9.36-3.18L9.36-3.18Q11.67-3.18 13.32-4.62ZM17.58-18.69L17.58-18.69L17.58-18.69Q18.99-20.34 21.33-20.34L21.33-20.34L21.33-20.34Q23.19-20.34 24.18-19.62L24.18-19.62L24.18-19.62Q25.17-18.87 25.83-17.04L25.83-17.04L27.09-13.47L31.62-19.77L35.67-19.77L28.32-10.02L30.21-4.68L30.21-4.68Q30.63-3.48 31.37-2.59L31.37-2.59L31.37-2.59Q32.10-1.71 32.76-1.56L32.76-1.56L32.76-1.56Q32.16-0.42 31.13 0.09L31.13 0.09L31.13 0.09Q30.09 0.60 28.57 0.60L28.57 0.60L28.57 0.60Q27.06 0.60 26.00-0.39L26.00-0.39L26.00-0.39Q24.93-1.38 24.12-3.60L24.12-3.60L23.25-6L18.72 0L15.03 0L21.93-9.57L19.77-15.60L19.77-15.60Q19.29-16.92 18.81-17.59L18.81-17.59L18.81-17.59Q18.33-18.27 17.58-18.69ZM46.53-20.01L46.53-20.01L46.53-20.01Q53.88-20.01 53.88-14.82L53.88-14.82L53.88-14.82Q53.88-11.97 52.05-10.26L52.05-10.26L52.05-10.26Q50.25-8.55 47.10-8.55L47.10-8.55L47.10-8.55Q45.63-8.55 44.49-9.39L44.49-9.39L44.49-9.39Q43.95-9.75 43.59-10.23L43.59-10.23L43.59-10.23Q45.78-10.23 46.94-11.56L46.94-11.56L46.94-11.56Q48.09-12.90 48.09-15.51L48.09-15.51L48.09-15.51Q48.09-18.12 45.51-18.12L45.51-18.12L44.79-18.12L44.79-18.12Q44.61-18.12 44.46-18.09L44.46-18.09L41.01 0L34.50 0L38.19-19.65L38.19-19.65Q41.40-19.95 43.26-19.98L43.26-19.98L43.26-19.98Q45.12-20.01 46.53-20.01ZM66.84-4.62L66.84-4.62L66.84-4.62Q67.41-3.90 67.41-2.73L67.41-2.73L67.41-2.73Q67.41-1.11 66.21-0.26L66.21-0.26L66.21-0.26Q65.01 0.60 63.12 0.60L63.12 0.60L63.12 0.60Q62.04 0.60 60.39 0.36L60.39 0.36L60.39 0.36Q57.15-0.15 56.16-0.15L56.16-0.15L56.16-0.15Q55.17-0.15 54.78-0.10L54.78-0.10L54.78-0.10Q54.39-0.06 53.76 0L53.76 0L57.45-19.80L70.38-19.80L70.38-19.80Q70.38-17.97 69.49-17.01L69.49-17.01L69.49-17.01Q68.61-16.05 66.87-16.05L66.87-16.05L66.87-16.05Q65.13-16.05 63.36-16.86L63.36-16.86L62.43-11.61L67.77-11.61L67.77-11.61Q67.77-10.02 66.99-9.13L66.99-9.13L66.99-9.13Q66.21-8.25 64.91-8.25L64.91-8.25L64.91-8.25Q63.60-8.25 62.79-8.55L62.79-8.55L62.79-8.55Q61.98-8.85 61.89-8.94L61.89-8.94L60.81-3.27L60.81-3.27Q61.53-3.18 62.88-3.18L62.88-3.18L62.88-3.18Q65.19-3.18 66.84-4.62ZM76.32 0L69.90 0L73.56-19.71L73.56-19.71Q76.53-20.04 80.86-20.04L80.86-20.04L80.86-20.04Q85.20-20.04 87.21-18.78L87.21-18.78L87.21-18.78Q89.22-17.52 89.22-14.98L89.22-14.98L89.22-14.98Q89.22-12.45 87.91-10.86L87.91-10.86L87.91-10.86Q86.61-9.27 84.36-8.76L84.36-8.76L84.36-8.76Q84.87-6.27 86.04-4.26L86.04-4.26L86.04-4.26Q87.12-2.37 88.38-1.77L88.38-1.77L88.38-1.77Q87.93-0.51 87.02 0.04L87.02 0.04L87.02 0.04Q86.10 0.60 84.80 0.60L84.80 0.60L84.80 0.60Q83.49 0.60 82.47-0.16L82.47-0.16L82.47-0.16Q81.45-0.93 80.64-2.34L80.64-2.34L80.64-2.34Q78.93-5.40 78.75-10.23L78.75-10.23L78.96-10.23L78.96-10.23Q81.18-10.29 82.29-11.45L82.29-11.45L82.29-11.45Q83.40-12.60 83.40-15.03L83.40-15.03L83.40-15.03Q83.40-18.06 80.85-18.18L80.85-18.18L80.19-18.18L80.19-18.18Q79.92-18.18 79.77-18.15L79.77-18.15L76.32 0ZM96.81 0L90.27 0L94.08-19.80L100.68-19.80L96.81 0ZM114.15-4.62L114.15-4.62L114.15-4.62Q114.72-3.90 114.72-2.73L114.72-2.73L114.72-2.73Q114.72-1.11 113.52-0.26L113.52-0.26L113.52-0.26Q112.32 0.60 110.43 0.60L110.43 0.60L110.43 0.60Q109.35 0.60 107.70 0.36L107.70 0.36L107.70 0.36Q104.46-0.15 103.47-0.15L103.47-0.15L103.47-0.15Q102.48-0.15 102.09-0.10L102.09-0.10L102.09-0.10Q101.70-0.06 101.07 0L101.07 0L104.76-19.80L117.69-19.80L117.69-19.80Q117.69-17.97 116.80-17.01L116.80-17.01L116.80-17.01Q115.92-16.05 114.18-16.05L114.18-16.05L114.18-16.05Q112.44-16.05 110.67-16.86L110.67-16.86L109.74-11.61L115.08-11.61L115.08-11.61Q115.08-10.02 114.30-9.13L114.30-9.13L114.30-9.13Q113.52-8.25 112.22-8.25L112.22-8.25L112.22-8.25Q110.91-8.25 110.10-8.55L110.10-8.55L110.10-8.55Q109.29-8.85 109.20-8.94L109.20-8.94L108.12-3.27L108.12-3.27Q108.84-3.18 110.19-3.18L110.19-3.18L110.19-3.18Q112.50-3.18 114.15-4.62ZM107.16-20.82L106.41-22.47L112.20-25.68L116.28-22.56L114.96-20.97L111.51-22.44L107.16-20.82ZM120.57 0L117.27 0L120.87-19.80L127.32-19.80L132-6.18L134.49-19.80L137.82-19.77L134.16 0L127.29 0L122.97-13.11L120.57 0ZM154.23-6.21L154.23-6.21L154.23-6.21Q155.01-5.64 155.01-4.42L155.01-4.42L155.01-4.42Q155.01-3.21 154.49-2.35L154.49-2.35L154.49-2.35Q153.96-1.50 152.94-0.84L152.94-0.84L152.94-0.84Q150.75 0.57 146.93 0.57L146.93 0.57L146.93 0.57Q143.10 0.57 141.02-1.43L141.02-1.43L141.02-1.43Q138.93-3.42 138.93-6.96L138.93-6.96L138.93-6.96Q138.93-11.97 141.54-15.78L141.54-15.78L141.54-15.78Q143.52-18.60 147.06-19.80L147.06-19.80L147.06-19.80Q148.89-20.40 150.69-20.40L150.69-20.40L150.69-20.40Q152.49-20.40 153.60-20.16L153.60-20.16L153.60-20.16Q154.71-19.92 155.55-19.44L155.55-19.44L155.55-19.44Q157.38-18.39 157.38-16.71L157.38-16.71L157.38-16.71Q157.38-15.18 155.94-14.04L155.94-14.04L155.94-14.04Q154.62-13.02 153.54-13.02L153.54-13.02L153.54-13.02Q152.46-13.02 152.01-13.17L152.01-13.17L152.01-13.17Q152.13-14.25 152.13-14.96L152.13-14.96L152.13-14.96Q152.13-15.66 152.10-16.17L152.10-16.17L152.10-16.17Q152.07-16.68 151.92-17.16L151.92-17.16L151.92-17.16Q151.62-18.27 150.71-18.27L150.71-18.27L150.71-18.27Q149.79-18.27 148.88-17.41L148.88-17.41L148.88-17.41Q147.96-16.56 147.18-15.12L147.18-15.12L147.18-15.12Q145.41-11.85 145.41-7.98L145.41-7.98L145.41-7.98Q145.41-6.12 146.46-5.05L146.46-5.05L146.46-5.05Q147.51-3.99 149.76-3.99L149.76-3.99L149.76-3.99Q151.44-3.99 153.03-5.10L153.03-5.10L153.03-5.10Q153.72-5.58 154.23-6.21ZM163.71 0L157.17 0L160.98-19.80L167.58-19.80L163.71 0ZM181.41 0.60L181.41 0.60L181.41 0.60Q177.57 0.60 177.21-4.86L177.21-4.86L172.05-4.86L172.05-4.86Q171.45-3.48 171.03-2.28L171.03-2.28L170.25 0L166.05 0L175.50-19.80L181.95-19.80L183.21-5.22L183.21-5.22Q183.51-2.07 184.71-1.14L184.71-1.14L184.71-1.14Q183.84 0.60 181.41 0.60ZM174.63-10.86L172.98-7.05L177.12-7.05L176.76-14.76L176.76-15.57L174.63-10.86Z" fill="#ccc"></path></g></g><style>text {
  font-size: 64px;
  font-family: Arial Black;
  dominant-baseline: central;
  text-anchor: middle;
}</style></svg>