<svg width="237.91786499023436px" height="68px" xmlns="http://www.w3.org/2000/svg" viewBox="131.04106750488282 41 237.91786499023436 68" style="background: rgba(0, 0, 0, 0);" preserveAspectRatio="xMidYMid"><defs><filter id="editing-hole" x="-100%" y="-100%" width="300%" height="300%"><feFlood flood-color="#000" result="black"></feFlood><feMorphology operator="dilate" radius="2" in="SourceGraphic" result="erode"></feMorphology><feGaussianBlur in="erode" stdDeviation="4" result="blur"></feGaussianBlur><feOffset in="blur" dx="2" dy="2" result="offset"></feOffset><feComposite operator="atop" in="offset" in2="black" result="merge"></feComposite><feComposite operator="in" in="merge" in2="SourceGraphic" result="inner-shadow"></feComposite></filter></defs><g filter="url(#editing-hole)"><g transform="translate(170.27496367692947, 91.64709663391113)"><path d="M14.16-15.90L14.16-15.90L14.16-15.90Q11.73-15.90 9.96-16.71L9.96-16.71L9-11.85L14.79-11.85L14.79-11.85Q14.79-10.26 13.99-9.25L13.99-9.25L13.99-9.25Q13.20-8.25 11.76-8.25L11.76-8.25L11.76-8.25Q10.20-8.25 8.76-8.82L8.76-8.82L8.76-8.82Q8.46-8.94 8.43-8.97L8.43-8.97L6.72 0L0.18 0L3.99-19.80L17.37-19.80L17.37-19.80Q17.37-17.97 16.52-16.93L16.52-16.93L16.52-16.93Q15.66-15.90 14.16-15.90ZM17.07-7.32L17.07-7.32L17.07-7.32Q17.07-12.99 20.01-16.56L20.01-16.56L20.01-16.56Q23.13-20.43 28.56-20.43L28.56-20.43L28.56-20.43Q32.49-20.43 34.47-18.52L34.47-18.52L34.47-18.52Q36.45-16.62 36.45-12.60L36.45-12.60L36.45-12.60Q36.45-6.48 33.33-2.91L33.33-2.91L33.33-2.91Q30.24 0.60 25.05 0.60L25.05 0.60L25.05 0.60Q21 0.60 19.04-1.43L19.04-1.43L19.04-1.43Q17.07-3.45 17.07-7.32ZM24.96-13.53L24.96-13.53L24.96-13.53Q23.61-8.13 23.61-3.87L23.61-3.87L23.61-3.87Q23.61-2.85 23.95-2.19L23.95-2.19L23.95-2.19Q24.30-1.53 25.21-1.53L25.21-1.53L25.21-1.53Q26.13-1.53 26.70-1.96L26.70-1.96L26.70-1.96Q27.27-2.40 27.72-3.39L27.72-3.39L27.72-3.39Q28.44-5.01 29.11-8.45L29.11-8.45L29.11-8.45Q29.79-11.88 29.85-13.30L29.85-13.30L29.85-13.30Q29.91-14.73 29.91-15.81L29.91-15.81L29.91-15.81Q29.91-16.89 29.58-17.58L29.58-17.58L29.58-17.58Q29.25-18.27 28.36-18.27L28.36-18.27L28.36-18.27Q27.48-18.27 26.88-17.73L26.88-17.73L26.88-17.73Q25.77-16.71 24.96-13.53ZM44.07 0L37.65 0L41.31-19.71L41.31-19.71Q44.28-20.04 48.61-20.04L48.61-20.04L48.61-20.04Q52.95-20.04 54.96-18.78L54.96-18.78L54.96-18.78Q56.97-17.52 56.97-14.98L56.97-14.98L56.97-14.98Q56.97-12.45 55.66-10.86L55.66-10.86L55.66-10.86Q54.36-9.27 52.11-8.76L52.11-8.76L52.11-8.76Q52.62-6.27 53.79-4.26L53.79-4.26L53.79-4.26Q54.87-2.37 56.13-1.77L56.13-1.77L56.13-1.77Q55.68-0.51 54.77 0.04L54.77 0.04L54.77 0.04Q53.85 0.60 52.54 0.60L52.54 0.60L52.54 0.60Q51.24 0.60 50.22-0.16L50.22-0.16L50.22-0.16Q49.20-0.93 48.39-2.34L48.39-2.34L48.39-2.34Q46.68-5.40 46.50-10.23L46.50-10.23L46.71-10.23L46.71-10.23Q48.93-10.29 50.04-11.45L50.04-11.45L50.04-11.45Q51.15-12.60 51.15-15.03L51.15-15.03L51.15-15.03Q51.15-18.06 48.60-18.18L48.60-18.18L47.94-18.18L47.94-18.18Q47.67-18.18 47.52-18.15L47.52-18.15L44.07 0ZM60.90 0L57.45 0L62.88-19.80L69.15-19.80L70.53-8.49L76.11-19.80L81.36-19.80L81.90-4.98L81.90-4.98Q82.02-2.04 83.46-1.14L83.46-1.14L83.46-1.14Q83.13-0.54 82.17 0.03L82.17 0.03L82.17 0.03Q81.21 0.60 79.94 0.60L79.94 0.60L79.94 0.60Q78.66 0.60 77.91 0.24L77.91 0.24L77.91 0.24Q77.16-0.12 76.74-0.72L76.74-0.72L76.74-0.72Q75.99-1.80 75.99-3.87L75.99-3.87L75.99-13.14L70.08 0L66.36 0L64.26-13.47L60.90 0ZM97.92 0.60L97.92 0.60L97.92 0.60Q94.08 0.60 93.72-4.86L93.72-4.86L88.56-4.86L88.56-4.86Q87.96-3.48 87.54-2.28L87.54-2.28L86.76 0L82.56 0L92.01-19.80L98.46-19.80L99.72-5.22L99.72-5.22Q100.02-2.07 101.22-1.14L101.22-1.14L101.22-1.14Q100.35 0.60 97.92 0.60ZM91.14-10.86L89.49-7.05L93.63-7.05L93.27-14.76L93.27-15.57L91.14-10.86ZM118.29-6.21L118.29-6.21L118.29-6.21Q119.07-5.64 119.07-4.42L119.07-4.42L119.07-4.42Q119.07-3.21 118.54-2.35L118.54-2.35L118.54-2.35Q118.02-1.50 117.00-0.84L117.00-0.84L117.00-0.84Q114.81 0.57 110.98 0.57L110.98 0.57L110.98 0.57Q107.16 0.57 105.07-1.43L105.07-1.43L105.07-1.43Q102.99-3.42 102.99-6.96L102.99-6.96L102.99-6.96Q102.99-11.97 105.60-15.78L105.60-15.78L105.60-15.78Q107.58-18.60 111.12-19.80L111.12-19.80L111.12-19.80Q112.95-20.40 114.75-20.40L114.75-20.40L114.75-20.40Q116.55-20.40 117.66-20.16L117.66-20.16L117.66-20.16Q118.77-19.92 119.61-19.44L119.61-19.44L119.61-19.44Q121.44-18.39 121.44-16.71L121.44-16.71L121.44-16.71Q121.44-15.18 120.00-14.04L120.00-14.04L120.00-14.04Q118.68-13.02 117.60-13.02L117.60-13.02L117.60-13.02Q116.52-13.02 116.07-13.17L116.07-13.17L116.07-13.17Q116.19-14.25 116.19-14.96L116.19-14.96L116.19-14.96Q116.19-15.66 116.16-16.17L116.16-16.17L116.16-16.17Q116.13-16.68 115.98-17.16L115.98-17.16L115.98-17.16Q115.68-18.27 114.76-18.27L114.76-18.27L114.76-18.27Q113.85-18.27 112.93-17.41L112.93-17.41L112.93-17.41Q112.02-16.56 111.24-15.12L111.24-15.12L111.24-15.12Q109.47-11.85 109.47-7.98L109.47-7.98L109.47-7.98Q109.47-6.12 110.52-5.05L110.52-5.05L110.52-5.05Q111.57-3.99 113.82-3.99L113.82-3.99L113.82-3.99Q115.50-3.99 117.09-5.10L117.09-5.10L117.09-5.10Q117.78-5.58 118.29-6.21ZM111.39-0.33L110.76 1.77L110.76 1.77Q111.24 1.71 112.36 1.71L112.36 1.71L112.36 1.71Q113.49 1.71 114.42 2.40L114.42 2.40L114.42 2.40Q115.35 3.09 115.35 4.11L115.35 4.11L115.35 4.11Q115.35 5.73 114.10 6.73L114.10 6.73L114.10 6.73Q112.86 7.74 110.82 7.74L110.82 7.74L110.82 7.74Q109.47 7.74 108.69 7.32L108.69 7.32L108.69 7.32Q107.91 6.90 107.91 6.18L107.91 6.18L107.91 6.18Q107.91 5.46 108.45 5.04L108.45 5.04L108.45 5.04Q109.02 6 110.46 6L110.46 6L110.46 6Q111.33 6 111.79 5.65L111.79 5.65L111.79 5.65Q112.26 5.31 112.26 4.71L112.26 4.71L112.26 4.71Q112.26 3.30 109.98 3.30L109.98 3.30L109.98 3.30Q109.38 3.30 108.72 3.36L108.72 3.36L109.83-0.33L111.39-0.33ZM125.37-4.86L130.53-4.86L130.53-4.86Q130.89 0.60 134.73 0.60L134.73 0.60L134.73 0.60Q137.16 0.60 138.03-1.14L138.03-1.14L138.03-1.14Q136.83-2.07 136.53-5.22L136.53-5.22L135.27-19.80L128.82-19.80L119.37 0L123.57 0L124.35-2.28L124.35-2.28Q124.80-3.48 125.37-4.86L125.37-4.86ZM130.44-7.05L126.30-7.05L127.95-10.86L130.08-15.57L130.08-14.76L130.44-7.05ZM129.06-21.84L129.06-21.84L129.06-21.84Q127.80-21.84 127.05-21.33L127.05-21.33L127.05-21.33Q126.45-22.20 126.45-23.10L126.45-23.10L126.45-23.10Q126.45-24 127.21-24.52L127.21-24.52L127.21-24.52Q127.98-25.05 129.42-25.05L129.42-25.05L129.42-25.05Q130.50-25.05 132.06-24.87L132.06-24.87L132.06-24.87Q134.88-24.54 135.94-24.54L135.94-24.54L135.94-24.54Q137.01-24.54 137.52-25.05L137.52-25.05L137.52-25.05Q138.09-24.39 138.09-23.41L138.09-23.41L138.09-23.41Q138.09-22.44 137.32-21.87L137.32-21.87L137.32-21.87Q136.56-21.30 135.21-21.30L135.21-21.30L135.21-21.30Q134.67-21.30 133.80-21.39L133.80-21.39L132.03-21.57L132.03-21.57Q131.13-21.66 130.32-21.75L130.32-21.75L130.32-21.75Q129.51-21.84 129.06-21.84ZM139.89-7.32L139.89-7.32L139.89-7.32Q139.89-12.99 142.83-16.56L142.83-16.56L142.83-16.56Q145.95-20.43 151.38-20.43L151.38-20.43L151.38-20.43Q155.31-20.43 157.29-18.52L157.29-18.52L157.29-18.52Q159.27-16.62 159.27-12.60L159.27-12.60L159.27-12.60Q159.27-6.48 156.15-2.91L156.15-2.91L156.15-2.91Q153.06 0.60 147.87 0.60L147.87 0.60L147.87 0.60Q143.82 0.60 141.85-1.43L141.85-1.43L141.85-1.43Q139.89-3.45 139.89-7.32ZM147.78-13.53L147.78-13.53L147.78-13.53Q146.43-8.13 146.43-3.87L146.43-3.87L146.43-3.87Q146.43-2.85 146.77-2.19L146.77-2.19L146.77-2.19Q147.12-1.53 148.03-1.53L148.03-1.53L148.03-1.53Q148.95-1.53 149.52-1.96L149.52-1.96L149.52-1.96Q150.09-2.40 150.54-3.39L150.54-3.39L150.54-3.39Q151.26-5.01 151.93-8.45L151.93-8.45L151.93-8.45Q152.61-11.88 152.67-13.30L152.67-13.30L152.67-13.30Q152.73-14.73 152.73-15.81L152.73-15.81L152.73-15.81Q152.73-16.89 152.40-17.58L152.40-17.58L152.40-17.58Q152.07-18.27 151.18-18.27L151.18-18.27L151.18-18.27Q150.30-18.27 149.70-17.73L149.70-17.73L149.70-17.73Q148.59-16.71 147.78-13.53Z" fill="#ccc"></path></g></g><style>text {
  font-size: 64px;
  font-family: Arial Black;
  dominant-baseline: central;
  text-anchor: middle;
}</style></svg>